<svg xmlns="http://www.w3.org/2000/svg" xmlns:xlink="http://www.w3.org/1999/xlink" width="100" height="100" viewBox="0 0 100 100"><defs><radialGradient id="a" cx="0.329" cy="0.224" r="0.781" gradientTransform="translate(-0.01 0.01) scale(0.973 0.968)" gradientUnits="objectBoundingBox"><stop offset="0" stop-color="#423325" stop-opacity="0.98"/><stop offset="1" stop-color="#1c0a00"/></radialGradient><clipPath id="c"><rect width="100" height="100"/></clipPath></defs><g id="b" clip-path="url(#c)"><rect width="100" height="100" fill="#fff"/><g transform="translate(14 -115.746)"><path d="M24.8,155.549H90.348V219.3H24.8Z" transform="translate(-21.678 -21.678)" fill="url(#a)"/><path d="M2.991,133.737H68.8v64.017H2.991ZM0,200.746H71.795v-70H0Zm47.026-45.051c0-.239.09-.359.359-.359h4.7c.239,0,.359.09.359.359v23.6c0,.239-.06.359-.359.359H47.444c-.3,0-.389-.15-.389-.389V155.695h-.03ZM46.7,148.9a3.051,3.051,0,0,1,6.1,0,2.859,2.859,0,0,1-3.111,3.051A2.812,2.812,0,0,1,46.7,148.9ZM33.235,165.537c-.837-3.321-2.812-10.56-3.56-14.06h-.06c-.628,3.5-2.214,9.423-3.47,14.06Zm-8.316,4.846-2.363,8.974c-.06.239-.15.3-.449.3h-4.4c-.3,0-.359-.09-.3-.449l8.5-29.735a9.69,9.69,0,0,0,.3-2.483c0-.209.09-.3.239-.3h6.282c.209,0,.3.06.359.3L42.6,179.267c.06.239,0,.389-.239.389H37.393c-.239,0-.389-.06-.449-.269l-2.453-9H24.919Z" fill="#ff7f18"/></g></g></svg>