<svg xmlns="http://www.w3.org/2000/svg" xmlns:xlink="http://www.w3.org/1999/xlink" width="100" height="100" viewBox="0 0 100 100"><defs><clipPath id="b"><rect width="100" height="100"/></clipPath></defs><g id="a" clip-path="url(#b)"><rect width="100" height="100" fill="#fff"/><g transform="translate(15 15)"><path d="M0,60.974A9.026,9.026,0,0,0,9.026,70H60.974A9.026,9.026,0,0,0,70,60.974V9.026A9.026,9.026,0,0,0,60.974,0H9.026A9.026,9.026,0,0,0,0,9.026V60.974Z" fill="#563d7c"/><path d="M81.118,67.986v-10.1h8.467a12.555,12.555,0,0,1,2.333.212,5.648,5.648,0,0,1,1.987.756,3.953,3.953,0,0,1,1.382,1.513,5.233,5.233,0,0,1,.518,2.481,4.677,4.677,0,0,1-1.555,3.933,6.28,6.28,0,0,1-3.974,1.21ZM72.075,50.5V93.7H92a20.075,20.075,0,0,0,5.386-.726,14.09,14.09,0,0,0,4.666-2.239,10.88,10.88,0,0,0,3.254-3.9,13.79,13.79,0,0,0-.662-12.585,9.889,9.889,0,0,0-5.674-4.024,10.377,10.377,0,0,0,4.176-3.57,9.822,9.822,0,0,0,1.411-5.446,12.092,12.092,0,0,0-.95-5.082,8.206,8.206,0,0,0-2.679-3.3,11.262,11.262,0,0,0-4.147-1.785,24.416,24.416,0,0,0-5.357-.545H72.075Zm9.043,35.82V74.46h9.849a7.361,7.361,0,0,1,4.723,1.422q1.785,1.422,1.786,4.75a6.191,6.191,0,0,1-.547,2.783,4.5,4.5,0,0,1-1.469,1.724,6.057,6.057,0,0,1-2.131.908,11.533,11.533,0,0,1-2.534.272Z" transform="translate(-51.766 -37.101)" fill="#fff"/></g></g></svg>