<svg xmlns="http://www.w3.org/2000/svg" xmlns:xlink="http://www.w3.org/1999/xlink" width="100" height="100" viewBox="0 0 100 100"><defs><linearGradient id="a" x1="-10.229" y1="13.597" x2="-10.229" y2="14.597" gradientUnits="objectBoundingBox"><stop offset="0.387" stop-color="#d1d3d4" stop-opacity="0"/><stop offset="1" stop-color="#d1d3d4"/></linearGradient><linearGradient id="b" x1="-9.516" y1="14.078" x2="-9.516" y2="15.078" xlink:href="#a"/><linearGradient id="c" x1="-5.39" y1="6.703" x2="-4.39" y2="6.703" gradientUnits="objectBoundingBox"><stop offset="0" stop-color="#e8e7e5"/><stop offset="1" stop-color="#fff"/></linearGradient><linearGradient id="d" x1="-4.964" y1="30.297" x2="-3.964" y2="30.297" xlink:href="#c"/><clipPath id="f"><rect width="100" height="100"/></clipPath></defs><g id="e" clip-path="url(#f)"><rect width="100" height="100" fill="#fff"/><g transform="translate(12 13)"><path d="M0,0H75V75H0Z" fill="none"/><path d="M143.736,174.76l-18.868,5.152L106,174.76l-4.354-47.831h46.445Z" transform="translate(-87.368 -109.751)" fill="#2062af"/><path d="M269.289,154.511v45l.043.012,15.483-4.169,3.574-40.842Z" transform="translate(-231.899 -133.459)" fill="#3c9cd7"/><path d="M172.922,40.415V37.568h4.154V34.453h-7.269v8.8h7.269V40.415Zm11.626-2.847h2.9V34.453h-7.27v3.115c.973.973,1.48,1.438,2.886,2.845l-2.886,0v2.842h7.27V40.415l-2.9-2.847Zm10.3,0h2.9V34.453h-7.27v3.115c.973.973,1.48,1.438,2.887,2.845l-2.887,0v2.842h7.27V40.415Z" transform="translate(-146.281 -29.614)"/><path d="M185.372,202.275l-13.694,5.7.454,5.646,13.24-5.661,14.084-6.021.584-5.776-14.667,6.109Z" transform="translate(-147.896 -168.92)" fill="#fff"/><path d="M171.677,245.359l.454,5.646,13.24-5.661v-5.689Z" transform="translate(-147.816 -206.334)" fill="url(#a)"/><path d="M283.835,196.167l-14.667,6.109v5.689l14.084-6.021Z" transform="translate(-231.763 -168.894)" fill="url(#b)"/><path d="M171.827,280.258l.454,5.646,20.315.065-.454,7.529-6.685,1.882-6.426-1.622-.389-4.673h-5.971l.779,9.021,12.072,3.569,12.007-3.5,1.558-17.912Z" transform="translate(-148.016 -241.365)" fill="url(#c)"/><path d="M185.372,280.258H171.678l.454,5.646,13.24.042v-5.689Zm0,15.1-.065.018-6.425-1.622-.389-4.673h-5.971l.779,9.021,12.071,3.569Z" transform="translate(-147.817 -241.365)" opacity="0.05"/><path d="M162.9,196.167h29.594l-.584,5.776h-28.3Z" transform="translate(-140.34 -168.869)" fill="url(#d)"/><path d="M177.825,196.167H162.9l.714,5.776h14.213v-5.776Z" transform="translate(-140.262 -168.869)" opacity="0.05"/></g></g></svg>