<svg xmlns="http://www.w3.org/2000/svg" xmlns:xlink="http://www.w3.org/1999/xlink" width="100" height="100" viewBox="0 0 100 100"><defs><clipPath id="b"><rect width="100" height="100"/></clipPath></defs><g id="a" clip-path="url(#b)"><rect width="100" height="100" fill="#fff"/><g transform="translate(24.555 15)"><path d="M50.038,70.766,45.52,121.634l-20.309,5.658L4.958,121.642.445,70.766H50.038Z" transform="translate(0 -57.293)" fill="#e44d26"/><path d="M128,138.874l16.073-4.456,3.781-42.361H128Z" transform="translate(-102.248 -73.089)" fill="#f16529"/><path d="M54.562,130.076h8.6V124H47.917l.145,1.631,1.495,16.757H63.164V136.3H55.118Zm1.37,15.348h-6.1l.852,9.548,12.456,3.458.028-.008v-6.326l-.027.007-6.772-1.829-.433-4.85Z" transform="translate(-38.157 -99.39)" fill="#ebebeb"/><path d="M24.18,0h3.17V3.053h2.9V0h3.17V9.245H30.25v-3.1h-2.9v3.1H24.18V0ZM37.587,3.066H34.8V0H43.55V3.066H40.758V9.245h-3.17V3.066h0ZM44.939,0h3.305l2.033,3.249L52.308,0h3.306V9.245H52.457V4.663L50.277,7.95h-.055L48.04,4.663V9.245h-3.1ZM57.192,0h3.171V6.189H64.82V9.245H57.192V0Z" transform="translate(-19.216)"/><path d="M127.889,142.383h7.488l-.706,7.886-6.782,1.83v6.326l12.466-3.455.091-1.027,1.429-16.008.148-1.633H127.889Zm0-12.322v.015h14.688l.122-1.367.277-3.083.145-1.631H127.889v6.066Z" transform="translate(-102.436 -99.39)" fill="#fff"/></g></g></svg>