<svg xmlns="http://www.w3.org/2000/svg" xmlns:xlink="http://www.w3.org/1999/xlink" width="100" height="100" viewBox="0 0 100 100"><defs><clipPath id="b"><rect width="100" height="100"/></clipPath></defs><g id="a" clip-path="url(#b)"><rect width="100" height="100" fill="#fff"/><g transform="translate(15 15)"><path d="M0,0H70V70H0Z" fill="#e74969"/><path d="M37.206,37.132h3.7v3.7h-3.7Zm-5.835-1.381c0-4.227-9.669-.9-9.669-7.844,0-2.761,2.338-5.132,6.186-5.132,4.067,0,6.211,2.493,6.284,5.743h-2.9a3.05,3.05,0,0,0-3.385-3.079c-2.021,0-3.263.855-3.263,2.4,0,3.812,9.742.855,9.742,7.795,0,3.152-2.728,5.205-6.868,5.205-4.6,0-6.381-2.932-6.478-5.767h2.923c.122,1.858,1.364,3.1,3.7,3.1,2.36,0,3.724-.856,3.724-2.42" transform="translate(22 22)" fill="#fff"/></g></g></svg>