<svg xmlns="http://www.w3.org/2000/svg" xmlns:xlink="http://www.w3.org/1999/xlink" width="100" height="100" viewBox="0 0 100 100"><defs><clipPath id="b"><rect width="100" height="100"/></clipPath></defs><g id="a" clip-path="url(#b)"><rect width="100" height="100" fill="#fff"/><g transform="translate(25 15)"><path d="M50.393,489.9H0l4.724,50.389L25.193,546l20.469-5.71Z" transform="translate(0 -476)" fill="#e6a329"/><path d="M887.9,637v48.52l16.585-4.7L908.52,637Z" transform="translate(-862.707 -619.861)" fill="#f1bf22"/><path d="M418.876,858.5h-25.5L391.6,877.681l.037-.119H413.3l-.707,8.115-6.912,1.989-7.014-2.02-.42-4.911h-6.367l.908,9.815,12.893,3.66,12.9-3.66,1.776-19.263H397.366l.3-6.418h15.952l.238,3.677h6.424Z" transform="translate(-380.489 -834.788)" fill="#fff"/><path d="M405.688,858.5H393.376L391.6,877.681l.037-.119h14.051v-6.256h-7.426l.3-6.418h7.13Zm-7.426,22.234h-6.381l.908,9.809,12.893,3.655v-6.526l-7.014-2.026Z" transform="translate(-380.489 -834.787)" fill="#ebebeb"/><path d="M561.586,6.344H557.1v3.22h7.7V0h-3.209ZM575.875.051h-7.82V3.4c1.044,1.044,1.589,1.546,3.127,3.059h-3.127V9.511h7.82V6.464L572.748,3.4h3.127Z" transform="translate(-541.293)" fill="#231f20"/></g></g></svg>