<svg xmlns="http://www.w3.org/2000/svg" xmlns:xlink="http://www.w3.org/1999/xlink" width="100" height="100" viewBox="0 0 100 100"><defs><clipPath id="b"><rect width="100" height="100"/></clipPath></defs><g id="a" clip-path="url(#b)"><rect width="100" height="100" fill="#fff"/><g transform="translate(17.397 14.416)"><path d="M29.5,1.331a5.87,5.87,0,0,1,5.731,0Q48.315,8.726,61.4,16.116a5.388,5.388,0,0,1,2.721,4.641v29.66A5.447,5.447,0,0,1,61.2,55.158Q48.156,62.512,35.119,69.872a5.7,5.7,0,0,1-5.794-.161q-3.911-2.267-7.826-4.525a4.608,4.608,0,0,1-1.51-1.087c.333-.448.927-.5,1.41-.7a18.265,18.265,0,0,0,3.087-1.441.721.721,0,0,1,.8.048c2.229,1.278,4.439,2.594,6.676,3.86.477.275.96-.09,1.368-.318q12.8-7.234,25.609-14.452a.847.847,0,0,0,.465-.834q.009-14.676,0-29.354a.917.917,0,0,0-.546-.915q-13-7.32-25.991-14.649a.9.9,0,0,0-1.021,0Q18.858,12.667,5.866,20a.906.906,0,0,0-.549.911q0,14.676,0,29.355a.83.83,0,0,0,.471.823q3.468,1.967,6.941,3.92a5.363,5.363,0,0,0,4.34.581A3.292,3.292,0,0,0,19.2,52.495c.012-9.727-.006-19.455.009-29.181a.733.733,0,0,1,.8-.748c1.111-.007,2.223-.015,3.334,0a.769.769,0,0,1,.725.89c0,9.789.012,19.577-.007,29.366,0,2.609-1.069,5.447-3.482,6.724a10.723,10.723,0,0,1-9.584-.263c-2.542-1.269-4.969-2.767-7.466-4.126A5.434,5.434,0,0,1,.6,50.416V20.757a5.4,5.4,0,0,1,2.815-4.7Q16.46,8.7,29.5,1.331Z" transform="translate(0 0)" fill="#8cc84b"/><path d="M115.235,85.7c3.773-.243,7.813-.144,11.208,1.715a8.476,8.476,0,0,1,4.133,7.335.794.794,0,0,1-.861.584c-1.095,0-2.19.015-3.285-.007a.846.846,0,0,1-.793-.821,5,5,0,0,0-2.392-3.456c-2.019-1.011-4.36-.96-6.562-.939a8.908,8.908,0,0,0-4.7,1.17A2.976,2.976,0,0,0,111,94.6c.352.836,1.317,1.105,2.106,1.354,4.547,1.189,9.366,1.071,13.827,2.636a6.509,6.509,0,0,1,4.285,3.812,8.144,8.144,0,0,1-1.379,7.769,10.887,10.887,0,0,1-5.845,3.15,28.08,28.08,0,0,1-8.822.375c-2.759-.315-5.63-1.039-7.76-2.919a8.144,8.144,0,0,1-2.623-6.424.736.736,0,0,1,.806-.649c1.1-.009,2.2-.012,3.307,0a.773.773,0,0,1,.789.764,5.011,5.011,0,0,0,1.865,3.518c2.241,1.446,5.052,1.347,7.618,1.387,2.126-.094,4.512-.123,6.246-1.528a3.45,3.45,0,0,0,.939-3.3c-.268-.974-1.287-1.427-2.161-1.724-4.489-1.42-9.362-.9-13.807-2.511a6.72,6.72,0,0,1-4.243-3.7,7.574,7.574,0,0,1,1.513-7.88c1.986-2,4.853-2.77,7.579-3.045Z" transform="translate(-78.11 -63.751)" fill="#8cc84b"/></g></g></svg>