<svg xmlns="http://www.w3.org/2000/svg" xmlns:xlink="http://www.w3.org/1999/xlink" width="100" height="100" viewBox="0 0 100 100"><defs><radialGradient id="a" cx="0.329" cy="0.224" r="0.781" gradientTransform="translate(-0.01 0.01) scale(0.973 0.968)" gradientUnits="objectBoundingBox"><stop offset="0" stop-color="#34364e" stop-opacity="0.98"/><stop offset="1" stop-color="#0c0824"/></radialGradient><clipPath id="c"><rect width="100" height="100"/></clipPath></defs><g id="b" clip-path="url(#c)"><rect width="100" height="100" fill="#fff"/><g transform="translate(14 -115.746)"><path d="M24.8,155.549H90.626v64.028H24.8Z" transform="translate(-21.817 -21.817)" fill="url(#a)"/><path d="M2.991,133.737H68.8v64.017H2.991ZM0,200.746H71.795v-70H0Zm48.4-41.282c-2.363,0-3.171,1.2-3.171,2.184,0,1.077.538,1.825,3.709,3.47,4.7,2.274,6.162,4.457,6.162,7.658,0,4.786-3.65,7.359-8.586,7.359a13.015,13.015,0,0,1-6.132-1.286c-.209-.09-.239-.239-.239-.479v-4.4c0-.3.15-.389.359-.239a11.1,11.1,0,0,0,6.013,1.765c2.363,0,3.35-.987,3.35-2.333,0-1.077-.688-2.034-3.709-3.59-4.248-2.034-6.013-4.1-6.013-7.538,0-3.859,3.021-7.06,8.256-7.06a13.755,13.755,0,0,1,5.355.838.662.662,0,0,1,.3.6v4.1c0,.239-.15.389-.449.3A10.105,10.105,0,0,0,48.4,159.464Zm-25.726,3.56c.688.06,1.227.06,2.423.06,3.5,0,6.791-1.226,6.791-5.983,0-3.8-2.363-5.714-6.342-5.714-1.2,0-2.333.06-2.872.09ZM17.35,147.139c0-.209.419-.359.658-.359,1.915-.09,4.756-.15,7.718-.15,8.286,0,11.517,4.547,11.517,10.35,0,7.6-5.5,10.859-12.265,10.859-1.137,0-1.526-.06-2.333-.06v11.487c0,.239-.09.359-.359.359H17.709c-.239,0-.359-.09-.359-.359V147.139Z" transform="translate(0 0)" fill="#31c5f0"/></g></g></svg>