<svg xmlns="http://www.w3.org/2000/svg" xmlns:xlink="http://www.w3.org/1999/xlink" width="100" height="100" viewBox="0 0 100 100"><defs><clipPath id="b"><rect width="100" height="100"/></clipPath></defs><g id="a" clip-path="url(#b)"><rect width="100" height="100" fill="#fff"/><g transform="translate(10.246 14.215)"><path d="M.754,35.659c0,5.88,5.742,11.369,14.793,14.463-1.808,9.1-.324,16.434,4.632,19.292,5.093,2.938,12.682.9,19.884-5.392,7.021,6.042,14.116,8.419,19.067,5.553,5.089-2.946,6.636-10.778,4.779-20.162,9.428-3.117,14.7-7.8,14.7-13.755,0-5.743-5.752-10.712-14.682-13.786,2-9.772.305-16.928-4.855-19.9C54.1-.9,46.921,1.6,39.8,7.8,32.385,1.219,25.278-.79,20.123,2.194c-4.971,2.877-6.389,10.345-4.576,19.613C6.8,24.857.754,29.939.754,35.659Z" transform="translate(0 0)" fill="#fff"/><path d="M72.708,34.689q-1.116-.383-2.25-.71.188-.765.348-1.536c1.7-8.276.59-14.942-3.213-17.137-3.646-2.1-9.609.09-15.631,5.336q-.89.777-1.74,1.6-.569-.546-1.158-1.071C42.751,15.561,36.425,13.2,32.626,15.4c-3.642,2.111-4.721,8.378-3.188,16.221q.229,1.165.517,2.317c-.9.254-1.76.526-2.587.814-7.4,2.582-12.125,6.63-12.125,10.828,0,4.336,5.073,8.685,12.78,11.322q.937.319,1.89.591-.309,1.241-.549,2.5c-1.462,7.707-.32,13.826,3.313,15.923,3.752,2.166,10.05-.06,16.182-5.426q.727-.636,1.458-1.346.92.889,1.889,1.726c5.94,5.117,11.806,7.183,15.436,5.079C71.392,73.773,72.61,67.2,71.028,59.2q-.181-.916-.419-1.87.663-.2,1.3-.406c8.012-2.657,13.225-6.953,13.225-11.347,0-4.213-4.878-8.288-12.426-10.889Z" transform="translate(-10.435 -9.889)" fill="#53c1de"/><path d="M78.106,61.111c-.385.128-.781.251-1.184.371a70.961,70.961,0,0,0-3.571-8.953,70.933,70.933,0,0,0,3.432-8.823c.721.21,1.421.43,2.1.663,6.525,2.251,10.506,5.58,10.506,8.145,0,2.732-4.3,6.279-11.278,8.6Zm-2.9,5.752a25.623,25.623,0,0,1,.339,9.328c-.42,2.269-1.265,3.782-2.309,4.387-2.222,1.289-6.975-.387-12.1-4.807q-.881-.76-1.773-1.62a70.926,70.926,0,0,0,5.911-7.522,70.171,70.171,0,0,0,9.55-1.475Q75.044,66.025,75.21,66.862ZM45.923,80.355c-2.171.769-3.9.79-4.945.186-2.224-1.286-3.149-6.249-1.888-12.907q.225-1.18.515-2.347a70.684,70.684,0,0,0,9.5,1.379,73.439,73.439,0,0,0,6.053,7.5q-.656.636-1.343,1.24a25.5,25.5,0,0,1-7.894,4.953ZM35.751,61.094a25.5,25.5,0,0,1-8.224-4.379c-1.749-1.5-2.632-2.992-2.632-4.2,0-2.573,3.828-5.856,10.213-8.087q1.2-.418,2.427-.765a72.511,72.511,0,0,0,3.437,8.926,73.613,73.613,0,0,0-3.48,9.053q-.877-.252-1.741-.546Zm3.41-23.262c-1.325-6.788-.445-11.909,1.769-13.194,2.359-1.369,7.576.583,13.074,5.476.351.313.7.64,1.058.979a72.321,72.321,0,0,0-6.007,7.451,73.449,73.449,0,0,0-9.41,1.466q-.27-1.083-.485-2.178ZM69.578,45.36q-1.034-1.79-2.144-3.534c2.25.285,4.406.663,6.43,1.126a64.5,64.5,0,0,1-2.257,6.086q-.977-1.859-2.028-3.678Zm-12.4-12.109a64.538,64.538,0,0,1,4.15,5.021q-4.165-.2-8.334,0c1.37-1.811,2.773-3.493,4.185-5.019ZM44.69,45.38q-1.038,1.8-1.99,3.655c-.877-2.085-1.628-4.136-2.241-6.116,2.012-.451,4.157-.82,6.393-1.1Q45.73,43.574,44.69,45.38Zm2.226,18.042a64.008,64.008,0,0,1-6.5-1.047c.623-2.015,1.39-4.109,2.286-6.239q.957,1.852,2,3.657,1.064,1.841,2.214,3.63ZM57.257,71.99c-1.428-1.544-2.852-3.252-4.243-5.089q2.025.08,4.126.08,2.156,0,4.257-.095A64.179,64.179,0,0,1,57.257,71.99ZM71.635,56.028A64.216,64.216,0,0,1,74,62.245a63.8,63.8,0,0,1-6.578,1.124q1.118-1.776,2.165-3.6,1.064-1.849,2.045-3.745ZM66.98,58.264q-1.6,2.79-3.383,5.471c-2.092.15-4.254.227-6.457.227s-4.329-.068-6.384-.2q-1.826-2.673-3.446-5.479Q45.7,55.492,44.3,52.586q1.392-2.9,3-5.7h0q1.606-2.792,3.419-5.456c2.1-.159,4.247-.242,6.421-.242s4.336.084,6.433.244q1.794,2.658,3.4,5.437t3.04,5.671q-1.413,2.914-3.03,5.721Zm6.214-33.716c2.361,1.365,3.28,6.869,1.8,14.087q-.146.705-.317,1.405a72.01,72.01,0,0,0-9.428-1.493,70.9,70.9,0,0,0-5.961-7.456q.792-.765,1.622-1.491C66.112,25.06,70.978,23.267,73.195,24.548Z" transform="translate(-17.387 -16.824)" fill="#fff"/><path d="M113.689,94.665a5.645,5.645,0,1,1-5.645,5.645,5.645,5.645,0,0,1,5.645-5.645" transform="translate(-73.928 -64.625)" fill="#53c1de"/></g></g></svg>