<svg xmlns="http://www.w3.org/2000/svg" xmlns:xlink="http://www.w3.org/1999/xlink" width="100" height="100" viewBox="0 0 100 100"><defs><clipPath id="b"><rect width="100" height="100"/></clipPath></defs><g id="a" clip-path="url(#b)"><rect width="100" height="100" fill="#fff"/><g transform="translate(12.275 1.038)"><path d="M3.4,251.632s-1.728-1.245.346-2.908l4.83-4.319a2.05,2.05,0,0,1,2.844-.187l44.575,33.748v16.183s-.022,2.541-3.283,2.26Z" transform="translate(0 -213.375)" fill="#2489ca"/><path d="M16.825,498.8,5.336,509.245s-1.181.878,0,2.448l5.334,4.852s1.267,1.361,3.139-.187l12.18-9.236Z" transform="translate(-1.936 -450.054)" fill="#1070b3"/><path d="M310.007,56.571l21.071-16.089-.137-16.1s-.9-3.513-3.9-1.685L299,48.221Z" transform="translate(-275.044 -7.621)" fill="#0877b9"/><path d="M689.119,83.057a2.9,2.9,0,0,0,2.707.84l16.42-8.071a3.451,3.451,0,0,0,1.807-3.2v-48.2a3.225,3.225,0,0,0-2.174-2.851l-14.232-6.843a3.958,3.958,0,0,0-5.147.345s2.62-1.881,3.9,1.68V80.487a2.891,2.891,0,0,1-.281,1.257c-.374.754-1.188,1.458-3.139,1.163Z" transform="translate(-636.585 0)" fill="#3c99d4"/></g></g></svg>