<svg xmlns="http://www.w3.org/2000/svg" xmlns:xlink="http://www.w3.org/1999/xlink" width="100" height="100" viewBox="0 0 100 100"><defs><clipPath id="a"><path d="M0,0H70V70H0Z"/></clipPath><clipPath id="c"><rect width="100" height="100"/></clipPath></defs><g id="b" clip-path="url(#c)"><rect width="100" height="100" fill="#fff"/><g transform="translate(15 15)" clip-path="url(#a)"><path d="M233.573,43.136H221.429v1.288c3.8,0,4.409.814,4.409,5.631v8.685c0,4.817-.61,5.7-4.409,5.7-2.916-.407-4.885-1.968-7.6-4.953l-3.121-3.392c4.205-.747,6.444-3.393,6.444-6.378,0-3.731-3.188-6.58-9.159-6.58H196.055v1.288c3.8,0,4.409.814,4.409,5.631v8.685c0,4.817-.61,5.7-4.409,5.7v1.289h13.5V64.44c-3.8,0-4.409-.883-4.409-5.7V56.3H206.3l7.531,9.43h19.743c9.7,0,13.909-5.156,13.909-11.33s-4.207-11.262-13.909-11.262ZM205.147,54.194V45.172h2.781c3.053,0,4.41,2.1,4.41,4.545a4.141,4.141,0,0,1-4.41,4.477Zm28.631,9.431H233.3c-2.442,0-2.781-.61-2.781-3.731V45.172h3.257c7.056,0,8.344,5.156,8.344,9.159C242.121,58.469,240.832,63.625,233.777,63.625Zm-75.511-6.92,4.681-13.842c1.357-4,.747-5.155-3.6-5.155V36.351h12.755v1.357c-4.273,0-5.292,1.017-6.987,5.97l-7.735,23.2H156.5l-6.921-21.236-7.055,21.236h-.883l-7.531-23.2c-1.628-4.953-2.714-5.97-6.649-5.97V36.352h15.062v1.357c-4,0-5.089.95-3.664,5.155l4.545,13.842,6.852-20.354h1.29Zm23.067,9.9c-7.463,0-13.569-5.495-13.569-12.213,0-6.649,6.106-12.145,13.569-12.145S194.9,47.748,194.9,54.4C194.9,61.115,188.8,66.61,181.333,66.61Zm0-22.252c-6.241,0-8.413,5.63-8.413,10.04,0,4.479,2.172,10.042,8.413,10.042,6.31,0,8.481-5.563,8.481-10.042,0-4.411-2.171-10.04-8.481-10.04Z" transform="translate(-54.641 -15.583)" fill="#00749a"/><path d="M355.207,64.371v1.357H339.67V64.371c4.546,0,5.36-1.153,5.36-7.939V45.578c0-6.786-.814-7.87-5.36-7.87V36.35h14.044c6.987,0,10.856,3.6,10.856,8.414,0,4.681-3.868,8.345-10.856,8.345h-3.868v3.323c0,6.786.814,7.939,5.361,7.939Zm-1.493-25.579h-3.868V50.6h3.868c3.8,0,5.563-2.646,5.563-5.834C359.277,41.507,357.514,38.792,353.714,38.792Zm57.465,20.558-.34,1.221c-.61,2.239-1.357,3.053-6.174,3.053h-.95c-3.527,0-4.138-.814-4.138-5.63V54.874c5.292,0,5.7.474,5.7,4h1.289V48.767h-1.289c0,3.528-.407,4-5.7,4v-7.6h3.731c4.818,0,5.564.814,6.174,3.053l.341,1.289h1.084l-.474-6.377H390.484v1.288c3.8,0,4.41.814,4.41,5.631V58.74c0,4.407-.518,5.517-3.514,5.676-2.847-.435-4.8-1.988-7.476-4.929l-3.121-3.392c4.207-.747,6.446-3.393,6.446-6.378,0-3.731-3.189-6.58-9.159-6.58H366.13v1.288c3.8,0,4.41.814,4.41,5.631V58.74c0,4.817-.61,5.7-4.41,5.7v1.289h13.5V64.44c-3.8,0-4.41-.883-4.41-5.7V56.3h1.154l7.531,9.43H411.79l.407-6.377Zm-35.957-5.157V45.171H378c3.053,0,4.411,2.1,4.411,4.545A4.141,4.141,0,0,1,378,54.194Zm49.73,12.416a10.03,10.03,0,0,1-6.106-2.307,4.869,4.869,0,0,0-1.085,2.307H416.47V57.247h1.357c.543,4.478,3.663,7.124,7.667,7.124,2.171,0,3.935-1.221,3.935-3.256,0-1.764-1.56-3.121-4.342-4.41l-3.868-1.832c-2.714-1.29-4.749-3.53-4.749-6.514,0-3.257,3.053-6.038,7.26-6.038a8.5,8.5,0,0,1,5.292,1.764,3.832,3.832,0,0,0,.882-1.833h1.289V50.26h-1.425c-.475-3.189-2.239-5.835-5.834-5.835-1.9,0-3.664,1.085-3.664,2.782,0,1.764,1.424,2.713,4.681,4.205l3.731,1.832c3.257,1.56,4.545,4.072,4.545,6.107C433.227,63.625,429.5,66.609,424.951,66.609Zm20.9,0A10.027,10.027,0,0,1,439.74,64.3a4.869,4.869,0,0,0-1.084,2.307h-1.289V57.247h1.357c.543,4.478,3.663,7.124,7.667,7.124,2.171,0,3.935-1.221,3.935-3.256,0-1.764-1.56-3.121-4.343-4.41l-3.868-1.832c-2.714-1.29-4.749-3.53-4.749-6.514,0-3.257,3.053-6.038,7.26-6.038a8.5,8.5,0,0,1,5.292,1.764,3.827,3.827,0,0,0,.881-1.833h1.29V50.26h-1.424c-.475-3.189-2.239-5.835-5.834-5.835-1.9,0-3.664,1.085-3.664,2.782,0,1.764,1.425,2.713,4.682,4.205l3.731,1.832c3.257,1.56,4.545,4.072,4.545,6.107,0,4.273-3.731,7.258-8.276,7.258Z" transform="translate(-145.609 -15.582)" fill="#464342"/><path d="M8.708,38.732A30.031,30.031,0,0,0,25.63,65.755L11.308,26.513a29.911,29.911,0,0,0-2.6,12.219ZM59,37.217a15.808,15.808,0,0,0-2.476-8.281C55,26.463,53.578,24.368,53.578,21.9a5.2,5.2,0,0,1,5.041-5.329c.133,0,.259.017.39.024a30.019,30.019,0,0,0-45.363,5.652c.7.021,1.369.035,1.932.035,3.141,0,8-.381,8-.381a1.241,1.241,0,0,1,.193,2.473s-1.627.191-3.437.286L31.271,57.178l6.571-19.707L33.163,24.655c-1.617-.095-3.149-.286-3.149-.286A1.241,1.241,0,0,1,30.2,21.9s4.958.381,7.909.381c3.14,0,8-.381,8-.381a1.241,1.241,0,0,1,.193,2.473s-1.63.191-3.436.286L53.722,56.931l2.994-10.008C58.015,42.77,59,39.787,59,37.217Z" transform="translate(-3.733 -3.733)" fill="#00749a"/><path d="M55.425,53.078,46.416,79.254a30.033,30.033,0,0,0,18.453-.478,2.544,2.544,0,0,1-.214-.414ZM81.244,36.046a23.043,23.043,0,0,1,.2,3.087,28.323,28.323,0,0,1-2.283,10.755L69.992,76.4A30.03,30.03,0,0,0,81.244,36.046Z" transform="translate(-19.898 -15.452)" fill="#00749a"/><path d="M35,0A35,35,0,1,0,70,35,35.04,35.04,0,0,0,35,0Zm0,68.4A33.4,33.4,0,1,1,68.394,35,33.434,33.434,0,0,1,35,68.4Z" fill="#00749a"/></g></g></svg>