<svg xmlns="http://www.w3.org/2000/svg" xmlns:xlink="http://www.w3.org/1999/xlink" width="100" height="100" viewBox="0 0 100 100"><defs><clipPath id="b"><rect width="100" height="100"/></clipPath></defs><g id="a" clip-path="url(#b)"><rect width="100" height="100" fill="#fff"/><g transform="translate(14 15)"><path d="M59.081,70H12.713A12.7,12.7,0,0,1,0,57.287V12.713A12.7,12.7,0,0,1,12.713,0H59.081A12.7,12.7,0,0,1,71.795,12.713V57.287A12.7,12.7,0,0,1,59.081,70Z" fill="#ff26be"/><path d="M158.039,166.889h-43.2A10.655,10.655,0,0,1,104.2,156.256V114.833A10.655,10.655,0,0,1,114.838,104.2h43.172a10.635,10.635,0,0,1,10.638,10.633v41.394a10.619,10.619,0,0,1-10.61,10.661Z" transform="translate(-100.545 -100.545)" fill="#2e001f"/><path d="M485,612.017l10.233,19.659c.182.291.074.586-.221.586h-6.36a.717.717,0,0,1-.768-.474c-2.34-4.824-4.715-9.647-7.164-14.836h-.074c-2.193,4.9-4.606,10.051-6.943,14.874a.705.705,0,0,1-.66.4h-6.023c-.365,0-.4-.291-.217-.512l10.012-19.077-9.682-19.295a.3.3,0,0,1,.218-.512h6.287c.365,0,.512.074.656.4,2.3,4.824,4.641,9.795,6.834,14.653h.074c2.119-4.824,4.459-9.83,6.725-14.618.182-.291.291-.474.659-.474h5.883c.291,0,.4.221.221.512Zm12.026,5.957c0-8.514,5.666-15.166,14.653-15.166a16.109,16.109,0,0,1,1.9.074V593.2a.364.364,0,0,1,.365-.365h5.774c.291,0,.365.109.365.291v33.548a26.105,26.105,0,0,0,.182,3.582c0,.221-.074.291-.291.4a21.755,21.755,0,0,1-9.356,2.119c-7.932.032-13.6-4.862-13.594-14.8Zm16.551-9.353a5.493,5.493,0,0,0-2.119-.365c-4.606,0-7.82,3.543-7.82,9.43,0,6.725,3.291,9.43,7.42,9.43a6.851,6.851,0,0,0,2.522-.4V608.622Z" transform="translate(-457.949 -579.088)" fill="#ffd9f2"/></g></g></svg>